<?xml version="1.0" encoding="UTF-8" standalone="no"?>
<!-- Created with Inkscape (http://www.inkscape.org/) -->

<svg
   width="210mm"
   height="297mm"
   viewBox="0 0 210 297"
   version="1.1"
   id="svg5"
   sodipodi:docname="memorables.svg"
   inkscape:version="1.1.1 (3bf5ae0d25, 2021-09-20)"
   xmlns:inkscape="http://www.inkscape.org/namespaces/inkscape"
   xmlns:sodipodi="http://sodipodi.sourceforge.net/DTD/sodipodi-0.dtd"
   xmlns="http://www.w3.org/2000/svg"
   xmlns:svg="http://www.w3.org/2000/svg">
  <sodipodi:namedview
     id="namedview7"
     pagecolor="#ffffff"
     bordercolor="#666666"
     borderopacity="1.0"
     inkscape:pageshadow="2"
     inkscape:pageopacity="0.0"
     inkscape:pagecheckerboard="0"
     inkscape:document-units="mm"
     showgrid="false"
     inkscape:zoom="0.52158053"
     inkscape:cx="47.931237"
     inkscape:cy="671.03732"
     inkscape:window-width="1366"
     inkscape:window-height="623"
     inkscape:window-x="0"
     inkscape:window-y="32"
     inkscape:window-maximized="1"
     inkscape:current-layer="layer1" />
  <defs
     id="defs2" />
  <g
     inkscape:label="Capa 1"
     inkscape:groupmode="layer"
     id="layer1">
    <path
       sodipodi:type="star"
       style="fill:#c25e28;fill-opacity:1;stroke:#4a2219;stroke-width:5.15856;stroke-linecap:round;stroke-linejoin:round;stroke-miterlimit:4;stroke-dasharray:none;stroke-opacity:1"
       id="path31412"
       inkscape:flatsided="false"
       sodipodi:sides="5"
       sodipodi:cx="1.6426566"
       sodipodi:cy="488.08969"
       sodipodi:r1="537.07056"
       sodipodi:r2="533.86499"
       sodipodi:arg1="-0.6261149"
       sodipodi:arg2="-0.014120581"
       inkscape:rounded="0"
       inkscape:randomized="0"
       d="M 436.83646,173.36578 535.45442,480.55146 435.44516,804.72855 173.76885,993.44541 -165.44645,998.50718 -425.78927,807.95493 -535.4266,486.90619 -434.651,180.42157 -163.19529,-23.059244 159.43028,-21.924911 Z"
       transform="matrix(0.1782985,0,0,0.16544835,104.99752,67.806874)"
       inkscape:transform-center-x="0.30409947"
       inkscape:transform-center-y="-8.5308219" />
    <rect
       style="fill:none;stroke-width:1.365;stroke-miterlimit:4;stroke-dasharray:none"
       id="rect1873"
       width="86.875557"
       height="23.383636"
       x="67.343323"
       y="154.89407" />
    <text
       xml:space="preserve"
       style="font-style:normal;font-variant:normal;font-weight:normal;font-stretch:normal;font-size:14.5235px;line-height:1.25;font-family:Z003;-inkscape-font-specification:'Z003, Normal';font-variant-ligatures:normal;font-variant-caps:normal;font-variant-numeric:normal;font-variant-east-asian:normal;fill:#4a2219;fill-opacity:1;stroke:none;stroke-width:0.363087"
       x="73.395233"
       y="139.45436"
       id="text7003"
       transform="scale(0.82704716,1.2091209)"><tspan
         sodipodi:role="line"
         id="tspan7001"
         style="font-style:normal;font-variant:normal;font-weight:normal;font-stretch:normal;font-size:14.5235px;font-family:Z003;-inkscape-font-specification:'Z003, Normal';font-variant-ligatures:normal;font-variant-caps:normal;font-variant-numeric:normal;font-variant-east-asian:normal;fill:#4a2219;fill-opacity:1;stroke-width:0.363087"
         x="73.395233"
         y="139.45436">Pasteles Memorables</tspan></text>
    <text
       xml:space="preserve"
       style="font-style:normal;font-variant:normal;font-weight:normal;font-stretch:normal;font-size:10.5833px;line-height:1.25;font-family:Z003;-inkscape-font-specification:'Z003, Normal';font-variant-ligatures:normal;font-variant-caps:normal;font-variant-numeric:normal;font-variant-east-asian:normal;fill:#000000;fill-opacity:1;stroke:none;stroke-width:0.264583"
       x="59.084503"
       y="184.51381"
       id="text25533"><tspan
         sodipodi:role="line"
         id="tspan25531"
         style="font-style:normal;font-variant:normal;font-weight:normal;font-stretch:normal;font-size:10.5833px;font-family:Z003;-inkscape-font-specification:'Z003, Normal';font-variant-ligatures:normal;font-variant-caps:normal;font-variant-numeric:normal;font-variant-east-asian:normal;stroke-width:0.264583"
         x="59.084503"
         y="184.51381">Momentos para recordar</tspan></text>
    <rect
       style="fill:none;stroke-width:1.365;stroke-miterlimit:4;stroke-dasharray:none"
       id="rect31119"
       width="120.89871"
       height="39.830387"
       x="-239.16698"
       y="132.81053" />
    <rect
       style="fill:none;stroke:#4a2219;stroke-width:0.985736;stroke-linecap:round;stroke-linejoin:round;stroke-miterlimit:4;stroke-dasharray:none;stroke-opacity:1"
       id="rect31225"
       width="110.63505"
       height="18.558455"
       x="49.682476"
       y="154.86497"
       ry="9.0738344" />
    <g
       id="g3074">
      <rect
         style="fill:#4a2219;fill-opacity:1;stroke-width:1.365;stroke-linecap:round;stroke-linejoin:round;stroke-miterlimit:4;stroke-dasharray:none;paint-order:stroke markers fill"
         id="rect2385-3"
         width="13.625213"
         height="2.3426216"
         x="40.633217"
         y="181.078" />
      <rect
         style="fill:#4a2219;fill-opacity:1;stroke-width:1.365;stroke-linecap:round;stroke-linejoin:round;stroke-miterlimit:4;stroke-dasharray:none;paint-order:stroke markers fill"
         id="rect2385"
         width="13.625213"
         height="2.3426216"
         x="154.21887"
         y="181.078" />
    </g>
    <g
       id="g3070"
       transform="translate(-4.6048491,-1.7493873e-4)">
      <path
         style="fill:#4a2219;fill-opacity:1;stroke:#4a2219;stroke-width:1.365;stroke-linecap:round;stroke-linejoin:round;stroke-miterlimit:4;stroke-dasharray:none;stroke-opacity:1;paint-order:stroke markers fill"
         id="path2723-6"
         d="m 120.43328,127.63873 c -0.18904,0.62339 -0.40198,1.238 -0.63038,1.84782 -0.0956,0.25255 -0.17906,0.51468 -0.34493,0.72939 -0.22124,0.3043 -0.45623,0.59324 -0.69768,0.88195 -0.18996,0.26863 -0.48547,0.44136 -0.75629,0.62139 -0.26275,0.13089 -0.48825,0.32242 -0.7367,0.47848 0,0 3.68953,-1.44111 3.68953,-1.44111 v 0 c 0.24631,-0.16972 0.49968,-0.32779 0.74515,-0.49817 0.26873,-0.20588 0.51162,-0.43426 0.70796,-0.71235 0.2466,-0.30015 0.48363,-0.61229 0.6854,-0.94433 0.11816,-0.25533 0.20577,-0.52391 0.29653,-0.79002 0.21322,-0.61443 0.39675,-1.23916 0.63061,-1.84629 0,0 -3.5892,1.67324 -3.5892,1.67324 z" />
      <path
         style="fill:none;stroke:#4a2219;stroke-width:1.365;stroke-linecap:round;stroke-linejoin:round;stroke-miterlimit:4;stroke-dasharray:none;stroke-opacity:1;paint-order:stroke markers fill"
         d="M 88.156357,145.90231 H 131.69373 L 138.673,133.81386 H 81.013017 Z"
         id="path42"
         sodipodi:nodetypes="ccccc" />
      <path
         style="fill:none;stroke:#4a2219;stroke-width:1.365;stroke-linecap:butt;stroke-linejoin:miter;stroke-miterlimit:4;stroke-dasharray:none;stroke-opacity:1"
         d="m 81.013017,133.81386 c -3.364265,3.62854 -8.065638,9.04774 -11.192126,3.19307 -1.486756,-2.78409 2.362511,-5.21071 3.998628,-6.52113 0.586317,-0.4696 1.298055,-1.49074 1.754724,-1.89731 1.156199,-1.02937 3.534788,-1.49496 4.940713,-2.03878 2.181118,-0.84367 4.274806,-2.49954 6.437694,-2.90414 5.412577,-1.01252 11.021887,-0.89167 16.68609,-0.89167 7.62476,0 24.69736,-0.69005 31.27936,1.87912 1.24943,0.4877 5.10196,1.12606 5.30837,1.54964 0.1344,0.27581 1.66755,1.35117 2.26983,1.5326 0.8016,0.24146 1.98694,0.51943 2.52236,1.08955 0.63465,0.67578 1.38094,1.76434 2.09386,2.49417 1.73119,1.77224 3.20591,3.17795 2.37968,5.76507 -1.44494,4.52442 -4.23322,2.08548 -7.11524,0.55252 -1.23512,-0.65696 -3.49043,-1.4181 -4.27619,-2.49013 -0.48071,-0.65584 -0.36647,-2.6483 0.57223,-1.31258"
         id="path629" />
      <path
         style="fill:#4a2219;fill-opacity:1;stroke:#4a2219;stroke-width:1.365;stroke-linecap:round;stroke-linejoin:round;stroke-miterlimit:4;stroke-dasharray:none;stroke-opacity:1;paint-order:stroke markers fill"
         id="path2719"
         d="m 104.13202,92.595918 c -0.91956,0.712854 -1.83873,1.438627 -2.60591,2.317269 -0.63836,0.691031 -0.98856,1.477457 -1.22227,2.372849 -0.17077,0.799037 -0.371883,1.594406 -0.1666,2.399012 0.42564,0.944642 0.87442,1.878762 1.30324,2.822002 0.35463,0.67551 0.57998,1.40349 0.80338,2.12997 0.14971,0.5032 0.24973,1.01797 0.30976,1.53902 0.0858,0.40212 0.12894,0.81084 0.20106,1.21522 0.0502,0.2871 0.0562,0.57892 0.0605,0.86954 -0.0484,0.37089 -0.16234,0.73257 -0.26951,1.09092 -0.0603,0.3261 -0.21718,0.583 -0.40281,0.85248 -0.22456,0.31325 -0.49917,0.58275 -0.79411,0.82865 -0.39981,0.32182 -0.78398,0.65867 -1.18786,0.97449 -0.214447,0.18719 -0.1096,0.10366 -0.312081,0.25364 0,0 3.685631,-1.47898 3.685631,-1.47898 v 0 c 0.18565,-0.16038 0.0861,-0.0763 0.29933,-0.2515 0.39434,-0.3317 0.79987,-0.65033 1.18146,-0.99721 0.28534,-0.28432 0.56106,-0.58008 0.75925,-0.93428 0.16482,-0.30075 0.28325,-0.61416 0.35795,-0.9497 0.10892,-0.39182 0.21694,-0.79321 0.21935,-1.20212 -0.0115,-0.31015 -0.0239,-0.62117 -0.0893,-0.92573 -0.0776,-0.39535 -0.12846,-0.79532 -0.20188,-1.19149 -0.0818,-0.53793 -0.18521,-1.07312 -0.36147,-1.58931 -0.24099,-0.73761 -0.46066,-1.48674 -0.84389,-2.16663 -0.4387,-0.906466 -0.88042,-1.814294 -1.24289,-2.754461 -0.12864,-0.745527 0.0569,-1.491033 0.23556,-2.215886 0.26445,-0.836615 0.67931,-1.566809 1.29098,-2.205847 0.80637,-0.840459 1.71344,-1.579221 2.66521,-2.2494 0,0 -3.67202,1.447482 -3.67202,1.447482 z" />
      <path
         style="fill:#4a2219;fill-opacity:1;stroke:#4a2219;stroke-width:1.365;stroke-linecap:round;stroke-linejoin:round;stroke-miterlimit:4;stroke-dasharray:none;stroke-opacity:1;paint-order:stroke markers fill"
         id="path2721"
         d="m 118.01779,93.852829 c -0.42403,0.71124 -0.96492,1.342531 -1.48151,1.986802 -0.33152,0.405032 -0.67748,0.803113 -0.97095,1.237265 -0.34699,0.501579 -0.54945,1.07137 -0.72888,1.649312 -0.19532,0.615527 -0.33323,1.248013 -0.43592,1.885152 -0.0678,0.41148 -0.0826,0.82582 -0.0418,1.23999 0.0374,0.49573 0.12831,0.9843 0.21991,1.47233 0.0736,0.44401 0.15839,0.88551 0.25164,1.32571 0.10547,0.3156 0.19209,0.63504 0.29557,0.95088 0.10348,0.31796 0.18717,0.64291 0.26357,0.96851 0.0505,0.2729 0.0517,0.55161 0.0541,0.8282 -0.002,0.37532 -0.12989,0.74061 -0.21835,1.10319 -0.14141,0.40354 -0.26705,0.8186 -0.43485,1.21199 -0.12198,0.30357 -0.238,0.57235 -0.49536,0.78327 -0.2181,0.23505 -0.45093,0.47157 -0.70034,0.67533 -0.37752,0.34208 -0.68784,0.78667 -1.00432,1.19478 -0.18183,0.2192 -0.093,0.12108 -0.26303,0.29736 0,0 3.65949,-1.54555 3.65949,-1.54555 v 0 c 0.14838,-0.1894 0.0683,-0.0874 0.24022,-0.30586 0.32819,-0.39864 0.6272,-0.82461 1.04029,-1.14172 0.23504,-0.23633 0.48847,-0.45248 0.69402,-0.71705 0.18922,-0.28099 0.30393,-0.60032 0.42825,-0.91374 0.13845,-0.41706 0.31136,-0.82336 0.40912,-1.25302 0.0964,-0.39407 0.20908,-0.79146 0.18352,-1.20152 -0.0102,-0.30475 -0.0187,-0.612 -0.0945,-0.90914 -0.0903,-0.33124 -0.17746,-0.66337 -0.27942,-0.99122 -0.0999,-0.30223 -0.18578,-0.60835 -0.28085,-0.9122 -0.0972,-0.43348 -0.17589,-0.87061 -0.26298,-1.3062 -0.0892,-0.47941 -0.14859,-0.96177 -0.18075,-1.44844 -0.0272,-0.382823 0.0118,-0.765275 0.0702,-1.143892 0.10415,-0.617839 0.25161,-1.228312 0.4505,-1.822825 0.19757,-0.552942 0.4359,-1.08516 0.80122,-1.550535 0.31278,-0.405863 0.62677,-0.81049 0.9493,-1.208712 0.51792,-0.663872 1.05187,-1.318056 1.48478,-2.042732 0,0 -3.62187,1.604285 -3.62187,1.604285 z" />
      <path
         style="fill:#4a2219;fill-opacity:1;stroke:#4a2219;stroke-width:1.365;stroke-linecap:round;stroke-linejoin:round;stroke-miterlimit:4;stroke-dasharray:none;stroke-opacity:1;paint-order:stroke markers fill"
         id="path3006"
         d="m 101.51006,127.23053 c -0.18904,0.62339 -0.40198,1.238 -0.63038,1.84782 -0.0956,0.25255 -0.17906,0.51468 -0.34493,0.72939 -0.22124,0.3043 -0.45623,0.59324 -0.697675,0.88195 -0.18996,0.26863 -0.48547,0.44136 -0.75629,0.62139 -0.26275,0.13089 -0.48825,0.32242 -0.7367,0.47848 0,0 3.689525,-1.44111 3.689525,-1.44111 v 0 c 0.24631,-0.16972 0.49968,-0.32779 0.74515,-0.49817 0.26873,-0.20588 0.51162,-0.43426 0.70796,-0.71235 0.2466,-0.30015 0.48363,-0.61229 0.6854,-0.94433 0.11816,-0.25533 0.20577,-0.52391 0.29653,-0.79002 0.21322,-0.61443 0.39675,-1.23916 0.63061,-1.84629 0,0 -3.5892,1.67324 -3.5892,1.67324 z" />
    </g>
  </g>
</svg>
